<svg
   xmlns:dc="http://purl.org/dc/elements/1.1/"
   xmlns:cc="http://creativecommons.org/ns#"
   xmlns:rdf="http://www.w3.org/1999/02/22-rdf-syntax-ns#"
   xmlns:svg="http://www.w3.org/2000/svg"
   xmlns="http://www.w3.org/2000/svg"
   xmlns:sodipodi="http://sodipodi.sourceforge.net/DTD/sodipodi-0.dtd"
   xmlns:inkscape="http://www.inkscape.org/namespaces/inkscape"
   style="enable-background:new"
   height="512"
   viewBox="0 0 512.40002 512"
   width="512.4"
   version="1.1"
   id="svg35"
   sodipodi:docname="logo.svg"
   inkscape:version="0.92.5 (2060ec1f9f, 2020-04-08)">
  <metadata
     id="metadata39">
    <rdf:RDF>
      <cc:Work
         rdf:about="">
        <dc:format>image/svg+xml</dc:format>
        <dc:type
           rdf:resource="http://purl.org/dc/dcmitype/StillImage" />
      </cc:Work>
    </rdf:RDF>
  </metadata>
  <sodipodi:namedview
     pagecolor="#ffffff"
     bordercolor="#666666"
     borderopacity="1"
     objecttolerance="10"
     gridtolerance="10"
     guidetolerance="10"
     inkscape:pageopacity="0"
     inkscape:pageshadow="2"
     inkscape:window-width="2928"
     inkscape:window-height="1792"
     id="namedview37"
     showgrid="false"
     inkscape:zoom="1.84375"
     inkscape:cx="413.70498"
     inkscape:cy="133.08648"
     inkscape:window-x="144"
     inkscape:window-y="54"
     inkscape:window-maximized="1"
     inkscape:current-layer="g993" />
  <defs
     id="defs7">
    <linearGradient
       id="a"
       y2="494"
       gradientUnits="userSpaceOnUse"
       x2="256"
       gradientTransform="matrix(1 0 0 1.076 0 -19.36)"
       y1="18"
       x1="256">
      <stop
         style="stop-color:#eaeaea"
         offset="0"
         id="stop2" />
      <stop
         style="stop-color:#f4f4f4"
         offset="1"
         id="stop4" />
    </linearGradient>
  </defs>
  <rect
     style="color:#000000;enable-background:accumulate;fill:url(#a)"
     height="512"
     width="512"
     y="0"
     x="0"
     id="rect9" />
  <g
     transform="translate(0,18)"
     id="g17">
    <path
       style="opacity:.3;color:#000000;enable-background:accumulate;fill:#fff"
       d="m256 256l-147.8 256h403.8v-256h-122.7-133.3z"
       transform="translate(0,-18)"
       id="path13" />
    <path
       style="opacity:.15;color:#000000;enable-background:accumulate;fill:#fff"
       d="m0 0v512h108.2l76.4-132.3 71.4-123.7-68.9-120-0.2 0.3-78.7-136.3h-108.2z"
       transform="translate(0,-18)"
       id="path15" />
  </g>
  <path
     d="m-208.3 605.6c-7.842 0-14.55 5.029-17.32 12.19-0.0612-0.00067-0.1208 0-0.1823 0-7.088 0-12.83 6.002-12.83 13.41 0 7.404 5.746 13.41 12.83 13.41h17.5 16.33c5.155 0 9.333-4.365 9.333-9.75 0-4.543-2.974-8.363-7-9.445 0.001-0.1029 0-0.2015 0-0.3047 0-10.77-8.357-19.5-18.67-19.5z"
     style="stroke-width:4;color:#000000;stroke:#ccc;enable-background:accumulate;display:none;fill:#fff"
     id="path19" />
  <path
     style="stroke-width:4;color:#000000;stroke:#ccc;enable-background:accumulate;display:none;fill:none"
     d="m288.9 828.1c-6.349 0-11.78 4.072-14.02 9.867-0.0496-0.00055-0.0978 0-0.1476 0-5.738 0-10.39 4.86-10.39 10.85 0 5.995 4.652 10.85 10.39 10.85h14.17 13.22c4.173 0 7.557-3.534 7.557-7.894 0-3.678-2.408-6.771-5.667-7.647 0.001-0.0833 0-0.1632 0-0.2467 0-8.719-6.766-15.79-15.11-15.79z"
     id="path21" />
  <g
     style="display:none"
     transform="translate(0 -558.4)"
     id="g33">
    <path
       d="m166.1 576.4h179.9c145.3 0 166.1 20.74 166.1 165.9v144.2c0 145.2-20.76 165.9-166.1 165.9h-179.9c-145.3 0-166.1-20-166.1-165.5v-144.2c0-145.2 20.76-165.9 166.1-165.9z"
       style="stroke:#00f;fill:#00f;display:inline;fill-opacity:.08118"
       id="path23" />
    <circle
       style="stroke-width:.8333;fill-opacity:.08118;color:#000000;stroke:#00f;enable-background:accumulate;display:inline;fill:#00f"
       cx="256"
       transform="matrix(1.2 0 0 1.2 -51.2 528.8)"
       cy="238"
       r="120"
       id="circle25" />
    <rect
       style="stroke-linejoin:round;fill-opacity:.08118;color:#000000;stroke:#00f;stroke-linecap:round;enable-background:accumulate;display:inline;fill:#00f"
       height="272"
       width="272"
       y="678.4"
       x="120"
       id="rect27" />
    <rect
       style="stroke-linejoin:round;fill-opacity:.08118;color:#000000;stroke:#00f;stroke-linecap:round;enable-background:accumulate;display:inline;fill:#00f"
       height="240"
       width="304"
       y="694.4"
       x="104"
       id="rect29" />
    <rect
       style="stroke-linejoin:round;fill-opacity:.08118;color:#000000;stroke:#00f;stroke-linecap:round;enable-background:accumulate;display:inline;fill:#00f"
       height="304"
       width="240"
       y="662.4"
       x="136"
       id="rect31" />
  </g>
  <g
     id="g993">
    <path
       style="fill:#fdfdfd"
       d="M 0,256 V 0 H 256 512 V 256 512 H 256 0 Z"
       id="path1009"
       inkscape:connector-curvature="0" />
    <path
       style="fill:#d2e4d0"
       d="M 0,256 V 0 H 256 512 V 256 512 H 256 0 Z m 204.9198,145.25 c 0.54829,-2.0625 11.62589,-47.17137 24.61689,-100.24194 12.991,-53.07056 24.10567,-97.07714 24.69927,-97.79238 0.75386,-0.90834 1.3959,-0.98382 2.12939,-0.25033 0.57757,0.57757 12.31914,46.15914 26.09239,101.29239 L 307.5,404.5 l 31.20722,0.26419 c 28.95384,0.24511 31.27464,0.1368 32.14082,-1.5 C 371.95414,401.17402 450,111.37157 450,109.35453 c 0,-1.1536 -5.09665,-1.3395 -30.67761,-1.11898 L 388.64478,108.5 364.90311,208.3603 c -13.05791,54.92316 -24.01156,100.93566 -24.34144,102.25 -0.63238,2.51962 -3.29827,3.26217 -4.09174,1.1397 -0.25702,-0.6875 -11.49764,-45.8 -24.97915,-100.25 C 298.00927,157.05 286.54332,111.4875 286.01091,110.25 L 285.04288,108 h -28.98626 c -26.59454,0 -29.06092,0.1444 -29.89122,1.75 -0.49774,0.9625 -12.29138,46.39422 -26.20811,100.95937 -16.18903,63.47448 -25.79211,99.397 -26.66064,99.73029 -0.77887,0.29888 -1.75874,-0.42972 -2.29887,-1.70937 C 170.48002,307.50363 159.84763,262.4 147.37025,208.5 134.89287,154.6 124.25008,109.9375 123.7196,109.25 122.98558,108.29869 115.51034,108 92.436572,108 c -16.675196,0 -30.528492,0.33971 -30.785102,0.75492 -0.454815,0.7359 76.7645,293.49108 77.89657,295.32281 0.3287,0.53184 14.07539,0.92227 32.47243,0.92227 h 31.90244 z"
       id="path1007"
       inkscape:connector-curvature="0" />
    <path
       style="fill:#c5ddc3"
       d="M 0,256 V 0 H 256 512 V 256 512 H 256 0 Z m 207.31248,138.75 c 1.40763,-5.6375 12.29166,-50.075 24.18674,-98.75 25.05764,-102.53662 22.3292,-92 23.8232,-92 0.74235,0 10.58144,37.58771 26.24178,100.25 l 25.05414,100.25 32.49925,0.26342 32.49924,0.26342 39.36309,-146.26342 C 432.62962,178.31854 450.54329,111.4875 450.78808,110.25 l 0.44507,-2.25 h -31.54919 c -29.18315,0 -31.58797,0.13124 -32.06638,1.75 -0.28446,0.9625 -11.14963,46.525 -24.14482,101.25 -12.99519,54.725 -24.03527,99.92 -24.53352,100.43333 -0.49825,0.51334 -1.13418,0.70506 -1.41319,0.42605 -0.27901,-0.279 -11.87401,-46.149 -25.76667,-101.93333 L 286.5,108.5 256.56517,108.23483 c -16.46416,-0.14584 -30.29435,0.0943 -30.73376,0.53376 -0.4394,0.4394 -12.20448,45.44448 -26.1446,100.01127 -13.94013,54.56679 -25.65494,99.5216 -26.03292,99.89958 -0.37797,0.37797 -1.08987,0.26723 -1.58199,-0.24611 C 171.57978,307.92 160.98253,263.625 148.52245,210 136.06238,156.375 125.62374,111.4875 125.32548,110.25 L 124.78318,108 H 92.324204 c -30.453157,0 -32.425481,0.10814 -31.91689,1.75 0.29815,0.9625 17.87778,67.225 39.065846,147.25 21.18807,80.025 38.73533,146.0625 38.99391,146.75 0.36302,0.96515 7.96917,1.25 33.37812,1.25 h 32.90797 z"
       id="path1005"
       inkscape:connector-curvature="0" />
    <path
       style="fill:#b1d1ae"
       d="M 0,256 V 0 H 256 512 V 256 512 H 256 0 Z m 204.72278,148.75 c 0.53222,-0.6875 11.67982,-45.125 24.77245,-98.75 13.09262,-53.625 24.19986,-98.57491 24.68275,-99.88869 0.48289,-1.31378 1.20289,-2.07497 1.6,-1.69153 0.39711,0.38344 11.97202,45.78335 25.72202,100.88869 l 25,100.19153 31.9357,0.2643 c 18.63609,0.15423 32.3212,-0.1212 32.86137,-0.66137 1.2103,-1.2103 80.40019,-295.51115 79.9107,-296.97963 -0.566,-1.69799 -61.59583,-1.57521 -62.97816,0.1267 -0.55841,0.6875 -11.69298,46.25 -24.7435,101.25 -13.05052,55 -24.11624,100.42 -24.5905,100.93333 -0.47425,0.51334 -1.06293,0.73269 -1.30816,0.48745 -0.24524,-0.24524 -11.51424,-45.21524 -25.04223,-99.93333 C 299.01724,156.26935 287.52004,110.4875 286.99588,109.25 l -0.953,-2.25 H 256 225.95712 l -0.96199,2.25 c -0.52909,1.2375 -12.1855,46.27856 -25.90313,100.09123 -13.71762,53.81268 -25.20758,98.10768 -25.53323,98.43334 -0.32566,0.32565 -0.97369,0.1721 -1.44008,-0.34124 C 171.65231,306.92 161.00461,262.175 148.45714,208 c -12.54747,-54.175 -23.23848,-99.0625 -23.7578,-99.75 -1.20426,-1.59424 -63.221348,-1.83242 -64.201457,-0.24657 -0.536216,0.86761 76.795217,295.04376 78.125197,297.19573 0.27223,0.44046 15.0383,0.80084 32.81349,0.80084 24.67207,0 32.54749,-0.29575 33.28621,-1.25 z"
       id="path1003"
       inkscape:connector-curvature="0" />
    <path
       style="fill:#99c495"
       d="M 0,256 V 0 H 256 512 V 256 512 H 256 0 Z m 205.85872,147.75 c 0.44507,-1.2375 11.56188,-46.24069 24.70401,-100.00708 13.80989,-56.49824 24.32582,-97.61344 24.91604,-97.41676 0.56167,0.18717 12.04623,44.72143 25.52123,98.96502 13.475,54.24358 24.97884,99.09997 25.5641,99.68086 0.7144,0.70906 11.70256,0.96936 33.43567,0.79206 l 32.37158,-0.2641 39.29885,-146 c 21.61437,-80.3 39.5809,-147.4625 39.92562,-149.25 l 0.62676,-3.25 h -32.05227 c -20.41151,0 -32.27802,0.36527 -32.67386,1.00574 -0.34187,0.55316 -11.18401,45.44066 -24.09364,99.75 -12.90964,54.30934 -23.72619,99.57706 -24.03678,100.59492 -0.31058,1.01787 -0.94048,1.46787 -1.39976,1 -0.45928,-0.46786 -11.89815,-45.4987 -25.41972,-100.06852 -13.52156,-54.56983 -24.84923,-99.90733 -25.17259,-100.75 C 286.86347,107.20182 282.72686,107 255.97056,107 H 225.1551 l -1.03786,3.25 c -0.57082,1.7875 -12.11825,46.675 -25.66095,99.75 -13.5427,53.075 -24.81056,96.6875 -25.03969,96.91667 -0.22913,0.22916 -0.69085,0.14241 -1.02605,-0.19279 -0.3352,-0.33519 -10.90695,-44.84769 -23.49278,-98.91666 C 136.31193,153.73825 125.80031,108.9375 125.5386,108.25 125.17142,107.28543 117.64785,107 92.590402,107 c -17.859803,0 -32.673315,0.3375 -32.918917,0.75 -0.245602,0.4125 17.268084,67.575 38.919304,149.25 21.651221,81.675 39.375611,148.6125 39.387531,148.75 0.0119,0.1375 15.10782,0.25 33.54643,0.25 h 33.52475 z"
       id="path1001"
       inkscape:connector-curvature="0" />
    <path
       style="fill:#8abb86"
       d="M 0,256 V 0 H 256 512 V 256 512 H 256 0 Z m 204.80495,150.14171 c 0.74039,-0.46959 11.67328,-43.18578 25.27041,-98.73469 13.181,-53.84886 24.22886,-98.58202 24.55081,-99.40702 0.47304,-1.2122 0.75755,-1.11627 1.48283,0.5 0.49361,1.1 11.74058,45.65 24.99328,99 13.25269,53.35 24.55633,97.5625 25.1192,98.25 0.77965,0.95227 8.58691,1.25 32.77852,1.25 26.95865,0 31.94251,-0.2258 32.99577,-1.4949 0.68236,-0.82219 19.14055,-67.98469 41.0182,-149.25 28.16148,-104.6068 39.48021,-148.12013 38.75935,-149.0051 -1.21469,-1.49121 -61.34841,-1.80497 -63.6745,-0.33224 -0.87799,0.55589 -10.23956,37.98243 -25.07188,100.23469 C 350.00806,261.7936 339.10348,307.175 338.79455,308 c -0.49929,1.33333 -0.62705,1.33333 -1.14985,0 -0.32348,-0.825 -11.60081,-45.97369 -25.06072,-100.33043 -13.45992,-54.35673 -25.00275,-99.46923 -25.65073,-100.25 -1.77455,-2.13821 -60.12258,-2.10129 -61.899,0.0392 -0.66586,0.8023 -12.45001,45.4648 -26.187,99.25 -13.737,53.78519 -25.3437,98.16515 -25.79266,98.62212 -0.44897,0.45697 -1.32586,-1.34303 -1.94863,-4 -0.62278,-2.65697 -11.00949,-47.31886 -23.08158,-99.24863 -12.53845,-53.9359 -22.5013,-94.76802 -23.23682,-95.23469 -0.70816,-0.4493 -15.58918,-0.82381 -33.068945,-0.83223 -26.471382,-0.0127 -31.871998,0.22082 -32.323722,1.398 -0.627946,1.6364 77.257537,296.46019 78.813507,298.33669 0.79035,0.95315 8.66605,1.24636 33.16404,1.23469 17.67016,-0.008 32.71479,-0.38777 33.43251,-0.84298 z"
       id="path999"
       inkscape:connector-curvature="0" />
    <path
       style="fill:#81b67c"
       d="M 0,256 V 0 H 256 512 V 256 512 H 256 0 Z m 205.74432,149.75 c 0.54406,-0.6875 11.64491,-44.9 24.66855,-98.25 13.02364,-53.35 23.93598,-97.675 24.24966,-98.5 0.50695,-1.33333 0.63688,-1.33333 1.16939,0 0.32949,0.825 11.6396,45.6 25.13357,99.5 l 24.53451,98 33.26529,0.2635 33.26529,0.2635 1.00645,-2.2635 c 2.07337,-4.66297 80.0212,-296.16937 79.53411,-297.43872 -0.72181,-1.881 -63.8053,-1.95318 -65.36252,-0.0748 -0.56995,0.6875 -11.69008,46.025 -24.7114,100.75 -13.02131,54.725 -23.83052,99.65792 -24.02044,99.85094 -0.49242,0.50043 -0.22005,1.57428 -26.02917,-102.62001 C 299.54184,153.12892 288.54615,109.4875 288.01273,108.25 L 287.04288,106 H 256 224.95712 l -0.98223,2.25 C 223.43467,109.4875 211.93013,153.925 198.40925,207 177.28017,289.94032 172,309.43184 172,304.48862 c 0,-2.52003 -45.43576,-196.16882 -46.2812,-197.25211 -0.76626,-0.98183 -8.25713,-1.20476 -33.602443,-1 -31.754698,0.25653 -32.623793,0.31633 -32.897821,2.26349 -0.256783,1.82462 77.059734,295.52319 78.343794,297.60085 0.92114,1.49043 66.99392,1.15044 68.18199,-0.35085 z"
       id="path997"
       inkscape:connector-curvature="0" />
    <path
       style="fill:#69a963"
       d="M 0,256 V 0 H 256 512 V 256 512 H 256 0 Z m 205.31913,150.75 c 1.23187,-0.90505 8.18371,-27.74221 25.19141,-97.25 12.91951,-52.8 23.86268,-96.87705 24.31815,-97.94899 0.58416,-1.37484 8.02239,26.87955 25.24971,95.91197 13.43188,53.82353 25.01624,98.46307 25.74303,99.19899 1.85928,1.88264 63.98309,1.96497 66.41771,0.088 1.07896,-0.83181 14.87423,-50.59607 41.23533,-148.75 21.78766,-81.125 39.79992,-148.04948 40.02724,-148.72106 0.22732,-0.67158 -0.27471,-1.90908 -1.11563,-2.75 -1.306,-1.30601 -6.0386,-1.52894 -32.45751,-1.52894 -28.19899,0 -31.08301,0.1554 -32.67857,1.76083 -1.21775,1.22528 -8.89188,31.81064 -25.23218,100.56322 -15.13036,63.66171 -23.75115,98.15749 -24.23844,96.98917 C 337.36344,303.31595 326.17231,258.625 312.91019,205 c -16.1277,-65.21188 -24.63941,-97.91395 -25.7027,-98.75 -2.28463,-1.79637 -60.11767,-1.79637 -62.444,0 -1.09277,0.84383 -9.6428,32.76865 -26.31308,98.25 -13.58187,53.35 -24.98956,97.32763 -25.35043,97.72807 -0.36086,0.40043 -10.8792,-43.24957 -23.37409,-97 C 133.05025,133.49288 126.55707,107.16754 125.31283,106.25 124.04202,105.31287 115.80161,105 92.390658,105 75.215762,105 60.451771,105.27314 59.581787,105.60699 58.711804,105.94083 58,106.90021 58,107.73894 c 0,1.42651 75.89354,289.0163 78.09883,295.94647 0.5575,1.75198 1.55084,3.40395 2.20741,3.67105 0.65657,0.26711 15.62025,0.52117 33.25263,0.56459 24.17736,0.0595 32.47715,-0.22836 33.76026,-1.17105 z"
       id="path995"
       inkscape:connector-curvature="0" />
  </g>
</svg>